<svg xmlns="http://www.w3.org/2000/svg" xmlns:xlink="http://www.w3.org/1999/xlink" width="55.778" height="52.344" viewBox="0 0 55.778 52.344">
  <defs>
    <linearGradient id="linear-gradient" x1="0.5" x2="0.5" y2="1" gradientUnits="objectBoundingBox">
      <stop offset="0" stop-color="#ffc400"/>
      <stop offset="0.328" stop-color="#ffc400"/>
      <stop offset="0.709" stop-color="#ffdd6d"/>
      <stop offset="1" stop-color="#ffe696"/>
    </linearGradient>
    <filter id="Path_17670" x="0" y="0" width="55.778" height="52.344" filterUnits="userSpaceOnUse">
      <feOffset dy="3" input="SourceAlpha"/>
      <feGaussianBlur stdDeviation="3" result="blur"/>
      <feFlood flood-opacity="0.502"/>
      <feComposite operator="in" in2="blur"/>
      <feComposite in="SourceGraphic"/>
    </filter>
  </defs>
  <g id="DASH_ALERTS_ACTIVE" transform="translate(9 6)">
    <g transform="matrix(1, 0, 0, 1, -9, -6)" filter="url(#Path_17670)">
      <path id="Path_17670-2" data-name="Path 17670" d="M21.889-1678.636A1.89,1.89,0,0,1,20-1680.525a1.889,1.889,0,0,1,1.889-1.889,1.889,1.889,0,0,1,1.889,1.889A1.89,1.89,0,0,1,21.889-1678.636Zm-1.717-17.344a1.722,1.722,0,0,1,1.717-1.717,1.722,1.722,0,0,1,1.717,1.717v10.3a1.722,1.722,0,0,1-1.717,1.717,1.722,1.722,0,0,1-1.717-1.717Zm20.122,16.854-15.309-27.052a3.531,3.531,0,0,0-3.1-1.822,3.531,3.531,0,0,0-3.1,1.822L3.484-1679.126a3.646,3.646,0,0,0,3.094,5.469H37.2A3.646,3.646,0,0,0,40.294-1679.126Z" transform="translate(6 1714)" fill-rule="evenodd" fill="url(#linear-gradient)"/>
    </g>
  </g>
</svg>
