<svg id="landing_profinity" xmlns="http://www.w3.org/2000/svg" xmlns:xlink="http://www.w3.org/1999/xlink" width="303.829" height="148.827" viewBox="0 0 303.829 148.827">
  <defs>
    <filter id="Path_5392">
      <feOffset dy="3" input="SourceAlpha"/>
      <feGaussianBlur stdDeviation="5" result="blur"/>
      <feFlood flood-opacity="0.102" result="color"/>
      <feComposite operator="out" in="SourceGraphic" in2="blur"/>
      <feComposite operator="in" in="color"/>
      <feComposite operator="in" in2="SourceGraphic"/>
    </filter>
    <filter id="Path_5393">
      <feOffset dy="3" input="SourceAlpha"/>
      <feGaussianBlur stdDeviation="5" result="blur-2"/>
      <feFlood flood-opacity="0.102" result="color-2"/>
      <feComposite operator="out" in="SourceGraphic" in2="blur-2"/>
      <feComposite operator="in" in="color-2"/>
      <feComposite operator="in" in2="SourceGraphic"/>
    </filter>
  </defs>
  <g data-type="innerShadowGroup">
    <path id="Path_5392-2" data-name="Path 5392" d="M1176.215,288.011c-1.53,38.8-33,69.731-72.653,71.384a77.114,77.114,0,0,1-40.851-9.622c-.629-.348-1.271-.716-1.9-1.088l-30.819-17.419,21.849-12.338,19.678,11.065a55.086,55.086,0,0,0,32.24,8.131c27.388-1.555,49.014-22.416,50.964-49.2,2.244-31.09-22.874-57.011-54.187-57.011a55.037,55.037,0,0,0-28.215,7.735l-.161.1L1051.6,251.319l-5.379,3.036h-.012l-21.849,12.276-32.743,18.419,27.127,15.262-21.786,12.312L953.193,287.9a3.252,3.252,0,0,1,0-5.688l49.312-27.857h.014l21.823-12.338,10.243-5.785,26.226-14.807c.668-.406,1.344-.788,2.023-1.16a76.823,76.823,0,0,1,37.408-9.622c43.008,0,77.651,34.939,75.973,77.368" transform="translate(-872.444 -210.643)" fill="#f1f0f0"/>
    <g transform="matrix(1, 0, 0, 1, 0, 0)" filter="url(#Path_5392)">
      <path id="Path_5392-3" data-name="Path 5392" d="M1176.215,288.011c-1.53,38.8-33,69.731-72.653,71.384a77.114,77.114,0,0,1-40.851-9.622c-.629-.348-1.271-.716-1.9-1.088l-30.819-17.419,21.849-12.338,19.678,11.065a55.086,55.086,0,0,0,32.24,8.131c27.388-1.555,49.014-22.416,50.964-49.2,2.244-31.09-22.874-57.011-54.187-57.011a55.037,55.037,0,0,0-28.215,7.735l-.161.1L1051.6,251.319l-5.379,3.036h-.012l-21.849,12.276-32.743,18.419,27.127,15.262-21.786,12.312L953.193,287.9a3.252,3.252,0,0,1,0-5.688l49.312-27.857h.014l21.823-12.338,10.243-5.785,26.226-14.807c.668-.406,1.344-.788,2.023-1.16a76.823,76.823,0,0,1,37.408-9.622c43.008,0,77.651,34.939,75.973,77.368" transform="translate(-872.44 -210.64)" fill="#fff"/>
    </g>
  </g>
  <g data-type="innerShadowGroup">
    <path id="Path_5393-2" data-name="Path 5393" d="M1128.855,287.9,1085.6,312.329l-6.057,3.428-5.083,2.863-16.766,9.463-36.445,20.6c-.68.4-1.358.79-2.023,1.148a76.9,76.9,0,0,1-37.421,9.637c-42,0-76.024-33.338-76.024-74.42s34.028-74.408,76.024-74.408a77.028,77.028,0,0,1,37.543,9.686c.63.346,1.271.728,1.9,1.1l30.818,17.407-21.851,12.352-19.689-11.069a55.025,55.025,0,0,0-32.225-8.13c-27.39,1.542-49.03,22.418-50.966,49.189-2.256,31.09,22.874,57.025,54.173,57.025a54.956,54.956,0,0,0,28.227-7.749l.149-.085,21.714-12.215.036.061,31.708-17.926,27.093-15.236L1063.4,269.839l21.775-12.3,43.686,24.676a3.242,3.242,0,0,1,0,5.687" transform="translate(-905.783 -210.643)" fill="#f1f0f0"/>
    <g transform="matrix(1, 0, 0, 1, 0, 0)" filter="url(#Path_5393)">
      <path id="Path_5393-3" data-name="Path 5393" d="M1128.855,287.9,1085.6,312.329l-6.057,3.428-5.083,2.863-16.766,9.463-36.445,20.6c-.68.4-1.358.79-2.023,1.148a76.9,76.9,0,0,1-37.421,9.637c-42,0-76.024-33.338-76.024-74.42s34.028-74.408,76.024-74.408a77.028,77.028,0,0,1,37.543,9.686c.63.346,1.271.728,1.9,1.1l30.818,17.407-21.851,12.352-19.689-11.069a55.025,55.025,0,0,0-32.225-8.13c-27.39,1.542-49.03,22.418-50.966,49.189-2.256,31.09,22.874,57.025,54.173,57.025a54.956,54.956,0,0,0,28.227-7.749l.149-.085,21.714-12.215.036.061,31.708-17.926,27.093-15.236L1063.4,269.839l21.775-12.3,43.686,24.676a3.242,3.242,0,0,1,0,5.687" transform="translate(-905.78 -210.64)" fill="#fff"/>
    </g>
  </g>
</svg>
