<svg xmlns="http://www.w3.org/2000/svg" width="37.414" height="37.41" viewBox="0 0 37.414 37.41">
  <g id="PASSWORD" transform="translate(0.5 0.5)">
    <path id="Mask" d="M0,24.482A11.928,11.928,0,1,1,11.929,36.41,11.942,11.942,0,0,1,0,24.482Zm1.255,0A10.673,10.673,0,1,0,11.929,13.809,10.685,10.685,0,0,0,1.255,24.482Zm13.9,6.6a.627.627,0,0,1,.211-.862,7.759,7.759,0,0,0,1.194-.89,6.506,6.506,0,0,0,1.872-7.144.628.628,0,1,1,1.177-.435,7.759,7.759,0,0,1-2.207,8.51A9.021,9.021,0,0,1,16.02,31.3a.627.627,0,0,1-.862-.211ZM7.382,29.03a3.765,3.765,0,1,1,2.662,1.1A3.743,3.743,0,0,1,7.382,29.03Zm.887-4.44a2.511,2.511,0,1,0,1.775-.736A2.513,2.513,0,0,0,8.27,24.59ZM25.44,18.655a.629.629,0,0,1-.086-.8l.071-.088,1.155-1.193.191-3.818a.628.628,0,0,1,.485-.58l.1-.015,3.374-.21.1-3.413a.628.628,0,0,1,.429-.577l.11-.026L35.112,7.4l-.433-5.594L28.97,1.277,18.658,11.95a.629.629,0,0,1-.8.086l-.088-.071a.626.626,0,0,1-.086-.8l.071-.089L28.275.189a.631.631,0,0,1,.4-.189h.113l6.537.607a.63.63,0,0,1,.549.466l.018.112.521,6.708a.628.628,0,0,1-.433.645l-.105.025-3.8.541-.1,3.456a.629.629,0,0,1-.484.593l-.105.016L28,13.377l-.174,3.5a.632.632,0,0,1-.105.318l-.071.088-1.321,1.363a.628.628,0,0,1-.887.014Zm-5.2-5.06a.628.628,0,0,1-.019-.8l.078-.082L30.348,3.92a.628.628,0,0,1,.905.862l-.078.082L21.13,13.654a.628.628,0,0,1-.886-.06Z" fill="currentColor" stroke="currentColor" stroke-width="1"/>
  </g>
</svg>
