<?xml version="1.0" encoding="UTF-8" standalone="no"?>
<svg
   id="PROFINITY_LOGO"
   data-name="PROFINITY LOGO"
   width="120"
   height="120"
   viewBox="0 -30 120 120"
   version="1.1"
   sodipodi:docname="profinity logo (square).svg"
   inkscape:version="1.3.2 (091e20e, 2023-11-25, custom)"
   xmlns:inkscape="http://www.inkscape.org/namespaces/inkscape"
   xmlns:sodipodi="http://sodipodi.sourceforge.net/DTD/sodipodi-0.dtd"
   xmlns="http://www.w3.org/2000/svg"
   xmlns:svg="http://www.w3.org/2000/svg">
  <defs
     id="defs1" />
  <sodipodi:namedview
     id="namedview1"
     pagecolor="#ffffff"
     bordercolor="#000000"
     borderopacity="0.25"
     inkscape:showpageshadow="2"
     inkscape:pageopacity="0.0"
     inkscape:pagecheckerboard="0"
     inkscape:deskcolor="#d1d1d1"
     inkscape:zoom="9.5215943"
     inkscape:cx="56.92324"
     inkscape:cy="35.235696"
     inkscape:window-width="3840"
     inkscape:window-height="2066"
     inkscape:window-x="3829"
     inkscape:window-y="-11"
     inkscape:window-maximized="1"
     inkscape:current-layer="PROFINITY_LOGO" />
  <path
     id="Path_5392"
     data-name="Path 5392"
     d="M 119.764,30.503 A 29.553,29.553 0 0 1 91.12,58.647 30.4,30.4 0 0 1 75.014,54.854 c -0.248,-0.137 -0.5,-0.282 -0.749,-0.429 l -12.15,-6.868 8.614,-4.864 7.758,4.363 a 21.717,21.717 0 0 0 12.711,3.206 20.948,20.948 0 0 0 -1.271,-41.875 21.7,21.7 0 0 0 -11.124,3.05 l -0.063,0.039 -8.108,4.562 -2.12,1.2 v 0 l -8.614,4.84 -12.909,7.262 10.7,6.017 -8.589,4.854 -17.263,-9.754 a 1.282,1.282 0 0 1 0,-2.243 L 51.278,17.231 h 0.006 l 8.6,-4.864 4.038,-2.281 10.34,-5.838 c 0.263,-0.16 0.529,-0.311 0.8,-0.457 A 30.289,30.289 0 0 1 89.81,-0.002 c 16.956,0 30.615,13.775 29.953,30.5"
     fill="#e50019" />
  <path
     id="Path_5393"
     data-name="Path 5393"
     d="m 87.948,30.457 -17.054,9.631 -2.388,1.352 -2,1.129 -6.61,3.731 -14.369,8.123 c -0.268,0.156 -0.535,0.312 -0.8,0.453 a 30.319,30.319 0 0 1 -14.753,3.8 C 13.417,58.676 0.001,45.532 0.001,29.335 0.001,13.138 13.417,-0.001 29.974,-0.001 a 30.369,30.369 0 0 1 14.8,3.819 c 0.248,0.136 0.5,0.287 0.749,0.433 l 12.15,6.863 -8.615,4.87 -7.762,-4.364 A 21.694,21.694 0 0 0 28.596,8.415 20.948,20.948 0 0 0 29.861,50.29 21.667,21.667 0 0 0 40.99,47.235 l 0.059,-0.033 8.561,-4.816 0.014,0.024 12.5,-7.067 10.682,-6.007 -10.662,-6 8.585,-4.85 17.223,9.729 a 1.278,1.278 0 0 1 0,2.242"
     fill="#ffffff" />
</svg>
