<svg xmlns="http://www.w3.org/2000/svg" xmlns:xlink="http://www.w3.org/1999/xlink" width="309.265" height="200.055" viewBox="0 0 309.265 200.055">
  <defs>
    <filter id="Path_17785">
      <feOffset dy="2" input="SourceAlpha"/>
      <feGaussianBlur stdDeviation="7.5" result="blur"/>
      <feFlood flood-opacity="0.329" result="color"/>
      <feComposite operator="out" in="SourceGraphic" in2="blur"/>
      <feComposite operator="in" in="color"/>
      <feComposite operator="in" in2="SourceGraphic"/>
    </filter>
    <filter id="Path_17786">
      <feOffset dy="3" input="SourceAlpha"/>
      <feGaussianBlur stdDeviation="5" result="blur-2"/>
      <feFlood flood-opacity="0.329" result="color-2"/>
      <feComposite operator="out" in="SourceGraphic" in2="blur-2"/>
      <feComposite operator="in" in="color-2"/>
      <feComposite operator="in" in2="SourceGraphic"/>
    </filter>
    <filter id="Path_17787">
      <feOffset dy="3" input="SourceAlpha"/>
      <feGaussianBlur stdDeviation="5" result="blur-3"/>
      <feFlood flood-opacity="0.329" result="color-3"/>
      <feComposite operator="out" in="SourceGraphic" in2="blur-3"/>
      <feComposite operator="in" in="color-3"/>
      <feComposite operator="in" in2="SourceGraphic"/>
    </filter>
    <filter id="Path_17788">
      <feOffset dy="3" input="SourceAlpha"/>
      <feGaussianBlur stdDeviation="5" result="blur-4"/>
      <feFlood flood-opacity="0.329" result="color-4"/>
      <feComposite operator="out" in="SourceGraphic" in2="blur-4"/>
      <feComposite operator="in" in="color-4"/>
      <feComposite operator="in" in2="SourceGraphic"/>
    </filter>
    <filter id="Path_17789">
      <feOffset dy="3" input="SourceAlpha"/>
      <feGaussianBlur stdDeviation="5" result="blur-5"/>
      <feFlood flood-opacity="0.329" result="color-5"/>
      <feComposite operator="out" in="SourceGraphic" in2="blur-5"/>
      <feComposite operator="in" in="color-5"/>
      <feComposite operator="in" in2="SourceGraphic"/>
    </filter>
    <filter id="Path_17790">
      <feOffset dy="3" input="SourceAlpha"/>
      <feGaussianBlur stdDeviation="5" result="blur-6"/>
      <feFlood flood-opacity="0.329" result="color-6"/>
      <feComposite operator="out" in="SourceGraphic" in2="blur-6"/>
      <feComposite operator="in" in="color-6"/>
      <feComposite operator="in" in2="SourceGraphic"/>
    </filter>
    <filter id="Path_17791">
      <feOffset dy="3" input="SourceAlpha"/>
      <feGaussianBlur stdDeviation="5" result="blur-7"/>
      <feFlood flood-opacity="0.329" result="color-7"/>
      <feComposite operator="out" in="SourceGraphic" in2="blur-7"/>
      <feComposite operator="in" in="color-7"/>
      <feComposite operator="in" in2="SourceGraphic"/>
    </filter>
  </defs>
  <g id="profinity_critical" transform="translate(2.011 1.999)">
    <g data-type="innerShadowGroup">
      <path id="Path_17785-2" data-name="Path 17785" d="M221.33,209.718c4.93-7.093,9.425-13.547,13.906-20.01,2.937-4.235,2.467-5.444-2.545-6.517-3.309-.709-6.621-1.4-9.943-2.043-2.485-.478-3.6-1.521-3.216-4.406,1.232-9.285,2.165-18.61,3.176-27.924.424-3.9-.676-4.772-4.4-3.476-6.281,2.189-12.579,4.336-18.795,6.7-2.749,1.046-4.156.255-5.246-2.321-2.636-6.23-5.431-12.393-8.172-18.579-.582-1.313-.882-2.985-2.717-3.091-1.807-.1-2.385,1.432-3.1,2.709-3.078,5.518-6.237,10.992-9.2,16.569-1.341,2.52-2.749,3.077-5.379,1.66-6.85-3.691-13.824-7.153-20.765-10.674-3.8-1.929-5.119-1.115-5.127,3.169-.019,10.165,0,20.332-.01,30.5-.005,3.848-.773,4.477-4.638,4.178-6.192-.479-12.389-.884-18.582-1.358-1.375-.105-2.818-.388-3.658,1.021-.818,1.373-.013,2.59.707,3.764q8.141,13.277,16.255,26.569c.619,1.018,1.56,1.914,1.626,3.56h-2.318c-12.538,0-25.076-.052-37.613.04a6.2,6.2,0,0,1-6.063-3.372Q68.289,176.661,50.942,147c-2.658-4.57-1.147-7.341,4.063-7.769,10.576-.87,21.145-1.844,31.728-2.626,3.4-.251,4.769-1.979,4.982-5.158q2.725-40.559,5.49-81.114c.162-2.392.125-4.942,2.974-5.87,2.755-.9,4.359.853,5.949,2.784q18.633,22.618,37.352,45.165c3.484,4.2,5.821,4.12,9.085-.248q14.292-19.131,28.561-38.278c3.531-4.731,6.568-4.545,9.413.625q10.77,19.571,21.5,39.164c2.3,4.189,3.161,4.592,7.88,3.471q23.2-5.512,46.4-11.076c6.618-1.584,8.665.47,7.024,7.162q-5.154,21.029-10.358,42.046c-1.451,5.889.111,7.821,6.112,7.427q14.2-.934,28.386-1.97c2.332-.169,4.631-.267,5.972,2.1,1.358,2.4,0,4.258-1.4,6.135q-21.195,28.559-42.306,57.178a7.91,7.91,0,0,1-7.1,3.617C242.487,209.632,232.33,209.718,221.33,209.718Z" transform="translate(-16.287 -14.543)" fill="#fff"/>
      <g transform="matrix(1, 0, 0, 1, -2.01, -2)" filter="url(#Path_17785)">
        <path id="Path_17785-3" data-name="Path 17785" d="M221.33,209.718c4.93-7.093,9.425-13.547,13.906-20.01,2.937-4.235,2.467-5.444-2.545-6.517-3.309-.709-6.621-1.4-9.943-2.043-2.485-.478-3.6-1.521-3.216-4.406,1.232-9.285,2.165-18.61,3.176-27.924.424-3.9-.676-4.772-4.4-3.476-6.281,2.189-12.579,4.336-18.795,6.7-2.749,1.046-4.156.255-5.246-2.321-2.636-6.23-5.431-12.393-8.172-18.579-.582-1.313-.882-2.985-2.717-3.091-1.807-.1-2.385,1.432-3.1,2.709-3.078,5.518-6.237,10.992-9.2,16.569-1.341,2.52-2.749,3.077-5.379,1.66-6.85-3.691-13.824-7.153-20.765-10.674-3.8-1.929-5.119-1.115-5.127,3.169-.019,10.165,0,20.332-.01,30.5-.005,3.848-.773,4.477-4.638,4.178-6.192-.479-12.389-.884-18.582-1.358-1.375-.105-2.818-.388-3.658,1.021-.818,1.373-.013,2.59.707,3.764q8.141,13.277,16.255,26.569c.619,1.018,1.56,1.914,1.626,3.56h-2.318c-12.538,0-25.076-.052-37.613.04a6.2,6.2,0,0,1-6.063-3.372Q68.289,176.661,50.942,147c-2.658-4.57-1.147-7.341,4.063-7.769,10.576-.87,21.145-1.844,31.728-2.626,3.4-.251,4.769-1.979,4.982-5.158q2.725-40.559,5.49-81.114c.162-2.392.125-4.942,2.974-5.87,2.755-.9,4.359.853,5.949,2.784q18.633,22.618,37.352,45.165c3.484,4.2,5.821,4.12,9.085-.248q14.292-19.131,28.561-38.278c3.531-4.731,6.568-4.545,9.413.625q10.77,19.571,21.5,39.164c2.3,4.189,3.161,4.592,7.88,3.471q23.2-5.512,46.4-11.076c6.618-1.584,8.665.47,7.024,7.162q-5.154,21.029-10.358,42.046c-1.451,5.889.111,7.821,6.112,7.427q14.2-.934,28.386-1.97c2.332-.169,4.631-.267,5.972,2.1,1.358,2.4,0,4.258-1.4,6.135q-21.195,28.559-42.306,57.178a7.91,7.91,0,0,1-7.1,3.617C242.487,209.632,232.33,209.718,221.33,209.718Z" transform="translate(-14.28 -12.54)" fill="#fff"/>
      </g>
      <path id="Path_17785-4" data-name="Path 17785" d="M221.33,209.718c4.93-7.093,9.425-13.547,13.906-20.01,2.937-4.235,2.467-5.444-2.545-6.517-3.309-.709-6.621-1.4-9.943-2.043-2.485-.478-3.6-1.521-3.216-4.406,1.232-9.285,2.165-18.61,3.176-27.924.424-3.9-.676-4.772-4.4-3.476-6.281,2.189-12.579,4.336-18.795,6.7-2.749,1.046-4.156.255-5.246-2.321-2.636-6.23-5.431-12.393-8.172-18.579-.582-1.313-.882-2.985-2.717-3.091-1.807-.1-2.385,1.432-3.1,2.709-3.078,5.518-6.237,10.992-9.2,16.569-1.341,2.52-2.749,3.077-5.379,1.66-6.85-3.691-13.824-7.153-20.765-10.674-3.8-1.929-5.119-1.115-5.127,3.169-.019,10.165,0,20.332-.01,30.5-.005,3.848-.773,4.477-4.638,4.178-6.192-.479-12.389-.884-18.582-1.358-1.375-.105-2.818-.388-3.658,1.021-.818,1.373-.013,2.59.707,3.764q8.141,13.277,16.255,26.569c.619,1.018,1.56,1.914,1.626,3.56h-2.318c-12.538,0-25.076-.052-37.613.04a6.2,6.2,0,0,1-6.063-3.372Q68.289,176.661,50.942,147c-2.658-4.57-1.147-7.341,4.063-7.769,10.576-.87,21.145-1.844,31.728-2.626,3.4-.251,4.769-1.979,4.982-5.158q2.725-40.559,5.49-81.114c.162-2.392.125-4.942,2.974-5.87,2.755-.9,4.359.853,5.949,2.784q18.633,22.618,37.352,45.165c3.484,4.2,5.821,4.12,9.085-.248q14.292-19.131,28.561-38.278c3.531-4.731,6.568-4.545,9.413.625q10.77,19.571,21.5,39.164c2.3,4.189,3.161,4.592,7.88,3.471q23.2-5.512,46.4-11.076c6.618-1.584,8.665.47,7.024,7.162q-5.154,21.029-10.358,42.046c-1.451,5.889.111,7.821,6.112,7.427q14.2-.934,28.386-1.97c2.332-.169,4.631-.267,5.972,2.1,1.358,2.4,0,4.258-1.4,6.135q-21.195,28.559-42.306,57.178a7.91,7.91,0,0,1-7.1,3.617C242.487,209.632,232.33,209.718,221.33,209.718Z" transform="translate(-16.287 -14.543)" fill="none" stroke="#6b7482" stroke-miterlimit="10" stroke-width="4"/>
    </g>
    <g data-type="innerShadowGroup">
      <path id="Path_17786-2" data-name="Path 17786" d="M61.282,118.18a3.037,3.037,0,0,1-1.57,3.123c-1.5.834-2.814.228-4.089-.61q-9.029-5.939-18.065-11.87c-3.669-2.411-7.371-4.775-11-7.248-3.42-2.33-3.263-5.061.4-6.819,6.693-3.213,13.437-6.319,20.141-9.51,2.394-1.14,4.368-.713,5.151,1.842,3.062,10,5.951,20.053,8.9,30.089A5.915,5.915,0,0,1,61.282,118.18Z" transform="translate(-8.079 -27.527)" fill="#fff"/>
      <g transform="matrix(1, 0, 0, 1, -2.01, -2)" filter="url(#Path_17786)">
        <path id="Path_17786-3" data-name="Path 17786" d="M61.282,118.18a3.037,3.037,0,0,1-1.57,3.123c-1.5.834-2.814.228-4.089-.61q-9.029-5.939-18.065-11.87c-3.669-2.411-7.371-4.775-11-7.248-3.42-2.33-3.263-5.061.4-6.819,6.693-3.213,13.437-6.319,20.141-9.51,2.394-1.14,4.368-.713,5.151,1.842,3.062,10,5.951,20.053,8.9,30.089A5.915,5.915,0,0,1,61.282,118.18Z" transform="translate(-6.07 -25.53)" fill="#fff"/>
      </g>
      <path id="Path_17786-4" data-name="Path 17786" d="M61.282,118.18a3.037,3.037,0,0,1-1.57,3.123c-1.5.834-2.814.228-4.089-.61q-9.029-5.939-18.065-11.87c-3.669-2.411-7.371-4.775-11-7.248-3.42-2.33-3.263-5.061.4-6.819,6.693-3.213,13.437-6.319,20.141-9.51,2.394-1.14,4.368-.713,5.151,1.842,3.062,10,5.951,20.053,8.9,30.089A5.915,5.915,0,0,1,61.282,118.18Z" transform="translate(-8.079 -27.527)" fill="none" stroke="#6b7482" stroke-miterlimit="10" stroke-width="4"/>
    </g>
    <g data-type="innerShadowGroup">
      <path id="Path_17787-2" data-name="Path 17787" d="M307.692,44.352c0-5.309-.008-10.618,0-15.927,0-1.709.009-3.429,1.844-4.4,1.8-.949,3,.268,4.258,1.171q7.3,5.227,14.56,10.5c3.349,2.438,3.57,3.727,1.133,6.909-5.15,6.724-10.344,13.413-15.508,20.125-1.062,1.381-2.129,2.794-4.167,2.082-1.993-.7-2.105-2.472-2.112-4.2C307.68,55.2,307.7,49.775,307.692,44.352Z" transform="translate(-99.161 -7.946)" fill="#fff"/>
      <g transform="matrix(1, 0, 0, 1, -2.01, -2)" filter="url(#Path_17787)">
        <path id="Path_17787-3" data-name="Path 17787" d="M307.692,44.352c0-5.309-.008-10.618,0-15.927,0-1.709.009-3.429,1.844-4.4,1.8-.949,3,.268,4.258,1.171q7.3,5.227,14.56,10.5c3.349,2.438,3.57,3.727,1.133,6.909-5.15,6.724-10.344,13.413-15.508,20.125-1.062,1.381-2.129,2.794-4.167,2.082-1.993-.7-2.105-2.472-2.112-4.2C307.68,55.2,307.7,49.775,307.692,44.352Z" transform="translate(-97.15 -5.95)" fill="#fff"/>
      </g>
      <path id="Path_17787-4" data-name="Path 17787" d="M307.692,44.352c0-5.309-.008-10.618,0-15.927,0-1.709.009-3.429,1.844-4.4,1.8-.949,3,.268,4.258,1.171q7.3,5.227,14.56,10.5c3.349,2.438,3.57,3.727,1.133,6.909-5.15,6.724-10.344,13.413-15.508,20.125-1.062,1.381-2.129,2.794-4.167,2.082-1.993-.7-2.105-2.472-2.112-4.2C307.68,55.2,307.7,49.775,307.692,44.352Z" transform="translate(-99.161 -7.946)" fill="none" stroke="#6b7482" stroke-miterlimit="10" stroke-width="4"/>
    </g>
    <g data-type="innerShadowGroup">
      <path id="Path_17788-2" data-name="Path 17788" d="M179.37.512c8.326.839,16.3,1.587,24.261,2.474,3.136.349,3.721,1.528,2.194,4.3-4.571,8.3-9.227,16.543-13.849,24.81-.556.994-1.106,2.11-2.418,2.1-1.487-.014-2-1.2-2.461-2.415-3.437-9.061-6.929-18.1-10.337-27.171C175.593,1.5,176.481.371,179.37.512Z" transform="translate(-56.95 -0.501)" fill="#fff"/>
      <g transform="matrix(1, 0, 0, 1, -2.01, -2)" filter="url(#Path_17788)">
        <path id="Path_17788-3" data-name="Path 17788" d="M179.37.512c8.326.839,16.3,1.587,24.261,2.474,3.136.349,3.721,1.528,2.194,4.3-4.571,8.3-9.227,16.543-13.849,24.81-.556.994-1.106,2.11-2.418,2.1-1.487-.014-2-1.2-2.461-2.415-3.437-9.061-6.929-18.1-10.337-27.171C175.593,1.5,176.481.371,179.37.512Z" transform="translate(-54.94 1.5)" fill="#fff"/>
      </g>
      <path id="Path_17788-4" data-name="Path 17788" d="M179.37.512c8.326.839,16.3,1.587,24.261,2.474,3.136.349,3.721,1.528,2.194,4.3-4.571,8.3-9.227,16.543-13.849,24.81-.556.994-1.106,2.11-2.418,2.1-1.487-.014-2-1.2-2.461-2.415-3.437-9.061-6.929-18.1-10.337-27.171C175.593,1.5,176.481.371,179.37.512Z" transform="translate(-56.95 -0.501)" fill="none" stroke="#6b7482" stroke-miterlimit="10" stroke-width="4"/>
    </g>
    <g data-type="innerShadowGroup">
      <path id="Path_17789-2" data-name="Path 17789" d="M28.992,253.247c-8.073-.76-16.838-1.555-25.6-2.424-2.958-.293-3.715-1.889-1.969-4.344,3.27-4.6,6.693-9.083,10.038-13.627,1.584-2.15,3.229-2.159,5.039-.272Q24.239,240.647,32,248.69c.891.929,1.6,1.958.872,3.322C32.175,253.316,31,253.514,28.992,253.247Z" transform="translate(-0.5 -74.595)" fill="#fff"/>
      <g transform="matrix(1, 0, 0, 1, -2.01, -2)" filter="url(#Path_17789)">
        <path id="Path_17789-3" data-name="Path 17789" d="M28.992,253.247c-8.073-.76-16.838-1.555-25.6-2.424-2.958-.293-3.715-1.889-1.969-4.344,3.27-4.6,6.693-9.083,10.038-13.627,1.584-2.15,3.229-2.159,5.039-.272Q24.239,240.647,32,248.69c.891.929,1.6,1.958.872,3.322C32.175,253.316,31,253.514,28.992,253.247Z" transform="translate(1.51 -72.6)" fill="#fff"/>
      </g>
      <path id="Path_17789-4" data-name="Path 17789" d="M28.992,253.247c-8.073-.76-16.838-1.555-25.6-2.424-2.958-.293-3.715-1.889-1.969-4.344,3.27-4.6,6.693-9.083,10.038-13.627,1.584-2.15,3.229-2.159,5.039-.272Q24.239,240.647,32,248.69c.891.929,1.6,1.958.872,3.322C32.175,253.316,31,253.514,28.992,253.247Z" transform="translate(-0.5 -74.595)" fill="none" stroke="#6b7482" stroke-miterlimit="10" stroke-width="4"/>
    </g>
    <g data-type="innerShadowGroup">
      <path id="Path_17790-2" data-name="Path 17790" d="M405.929,143a2.72,2.72,0,0,1-2.753-1.144,2.189,2.189,0,0,1,.3-2.788c4.719-6.041,9.414-12.1,14.149-18.127,1.413-1.8,3.043-1.8,4.6-.185,3.911,4.061,7.844,8.1,11.638,12.27,1.747,1.918,1.344,4.01-.9,4.5C423.938,139.466,414.868,141.2,405.929,143Z" transform="translate(-129.707 -38.74)" fill="#fff"/>
      <g transform="matrix(1, 0, 0, 1, -2.01, -2)" filter="url(#Path_17790)">
        <path id="Path_17790-3" data-name="Path 17790" d="M405.929,143a2.72,2.72,0,0,1-2.753-1.144,2.189,2.189,0,0,1,.3-2.788c4.719-6.041,9.414-12.1,14.149-18.127,1.413-1.8,3.043-1.8,4.6-.185,3.911,4.061,7.844,8.1,11.638,12.27,1.747,1.918,1.344,4.01-.9,4.5C423.938,139.466,414.868,141.2,405.929,143Z" transform="translate(-127.7 -36.74)" fill="#fff"/>
      </g>
      <path id="Path_17790-4" data-name="Path 17790" d="M405.929,143a2.72,2.72,0,0,1-2.753-1.144,2.189,2.189,0,0,1,.3-2.788c4.719-6.041,9.414-12.1,14.149-18.127,1.413-1.8,3.043-1.8,4.6-.185,3.911,4.061,7.844,8.1,11.638,12.27,1.747,1.918,1.344,4.01-.9,4.5C423.938,139.466,414.868,141.2,405.929,143Z" transform="translate(-129.707 -38.74)" fill="none" stroke="#6b7482" stroke-miterlimit="10" stroke-width="4"/>
    </g>
    <g data-type="innerShadowGroup">
      <path id="Path_17791-2" data-name="Path 17791" d="M433.868,257.128c-7.079-.576-13.272-1.04-19.455-1.618-1.235-.115-2.928.219-3.331-1.614-.342-1.557,1-2.13,1.975-2.838,4.48-3.246,9.051-6.371,13.438-9.737,2.315-1.776,3.55-1.119,4.684,1.195,1.588,3.241,3.294,6.424,4.933,9.641C438.321,256.494,437.787,257.327,433.868,257.128Z" transform="translate(-132.35 -77.52)" fill="#fff"/>
      <g transform="matrix(1, 0, 0, 1, -2.01, -2)" filter="url(#Path_17791)">
        <path id="Path_17791-3" data-name="Path 17791" d="M433.868,257.128c-7.079-.576-13.272-1.04-19.455-1.618-1.235-.115-2.928.219-3.331-1.614-.342-1.557,1-2.13,1.975-2.838,4.48-3.246,9.051-6.371,13.438-9.737,2.315-1.776,3.55-1.119,4.684,1.195,1.588,3.241,3.294,6.424,4.933,9.641C438.321,256.494,437.787,257.327,433.868,257.128Z" transform="translate(-130.34 -75.52)" fill="#fff"/>
      </g>
      <path id="Path_17791-4" data-name="Path 17791" d="M433.868,257.128c-7.079-.576-13.272-1.04-19.455-1.618-1.235-.115-2.928.219-3.331-1.614-.342-1.557,1-2.13,1.975-2.838,4.48-3.246,9.051-6.371,13.438-9.737,2.315-1.776,3.55-1.119,4.684,1.195,1.588,3.241,3.294,6.424,4.933,9.641C438.321,256.494,437.787,257.327,433.868,257.128Z" transform="translate(-132.35 -77.52)" fill="none" stroke="#6b7482" stroke-miterlimit="10" stroke-width="4"/>
    </g>
    <g id="Group_2713" data-name="Group 2713" transform="translate(-866.848 -399.848)">
      <line id="Line_3" data-name="Line 3" y2="51.456" transform="translate(1047.28 558.691) rotate(45)" fill="none" stroke="#6b7482" stroke-linecap="round" stroke-width="4"/>
      <line id="Line_4" data-name="Line 4" y2="51.456" transform="translate(1047.28 595.076) rotate(135)" fill="none" stroke="#6b7482" stroke-linecap="round" stroke-width="4"/>
    </g>
  </g>
</svg>
