<?xml version="1.0" standalone="no"?>
<!DOCTYPE svg PUBLIC "-//W3C//DTD SVG 20010904//EN"
 "http://www.w3.org/TR/2001/REC-SVG-20010904/DTD/svg10.dtd">
<svg version="1.0" xmlns="http://www.w3.org/2000/svg"
 width="260.000000pt" height="260.000000pt" viewBox="0 0 260.000000 260.000000"
 preserveAspectRatio="xMidYMid meet">
<metadata>
Created by potrace 1.14, written by Peter Selinger 2001-2017
</metadata>
<g transform="translate(0.000000,260.000000) scale(0.100000,-0.100000)"
fill="#000000" stroke="none">
<path d="M525 1915 c-175 -39 -314 -134 -408 -281 -45 -71 -87 -178 -87 -223
0 -17 -3 -21 -8 -14 -9 15 -8 -101 2 -167 38 -253 194 -437 441 -520 58 -20
91 -24 190 -24 184 0 189 2 755 321 25 14 74 42 110 63 73 43 87 50 257 144
67 37 124 75 128 84 7 18 -26 52 -51 52 -8 0 -14 5 -14 10 0 6 -5 10 -11 10
-6 0 -41 18 -77 39 -37 21 -89 51 -117 67 -27 15 -63 35 -80 44 -29 16 -30 16
-117 -33 -80 -44 -106 -67 -77 -67 6 0 43 -19 82 -42 40 -24 85 -49 100 -57
15 -7 26 -15 25 -16 -14 -12 -342 -195 -358 -200 -11 -3 -20 -11 -20 -16 0 -5
-5 -9 -10 -9 -6 0 -86 -42 -178 -94 -102 -58 -191 -100 -228 -110 -228 -59
-454 53 -543 269 -20 49 -25 78 -25 155 -1 114 18 179 76 261 77 110 200 177
343 186 110 7 176 -12 322 -91 l120 -66 91 52 91 52 -132 74 c-73 41 -159 88
-193 104 -113 53 -276 71 -399 43z"/>
<path d="M1799 1915 c-84 -18 -128 -38 -320 -146 -97 -54 -182 -99 -188 -99
-6 0 -11 -4 -11 -10 0 -5 -4 -10 -9 -10 -4 0 -95 -50 -201 -110 -106 -61 -213
-122 -239 -136 -174 -93 -178 -100 -95 -145 65 -35 93 -50 149 -83 28 -17 50
-28 50 -25 0 2 14 -6 30 -17 55 -39 111 -64 122 -53 12 12 89 56 125 72 16 6
28 14 28 18 0 8 -36 32 -109 71 -31 17 -63 36 -71 43 -8 7 -21 14 -28 16 -7 2
43 35 110 72 68 37 130 72 138 77 8 5 85 48 170 96 85 48 184 103 220 124 113
64 153 75 270 74 92 0 113 -4 170 -28 106 -46 178 -111 229 -206 102 -193 48
-430 -129 -561 -140 -102 -327 -117 -484 -38 -81 42 -168 89 -183 101 -8 7
-41 -6 -102 -39 -50 -26 -91 -51 -91 -54 0 -12 329 -189 390 -209 133 -45 324
-34 462 28 164 72 300 233 352 416 29 99 19 257 -21 366 -16 41 -62 126 -88
158 -61 79 -193 180 -263 203 -20 6 -43 16 -49 22 -7 5 -13 7 -13 4 0 -3 -19
0 -43 7 -54 16 -205 17 -278 1z"/>
</g>
</svg>
